<svg xmlns="http://www.w3.org/2000/svg" width="32" height="32" viewBox="0 0 32 32">
  <rect x="2" y="2" width="2" height="2" fill="#000"/>
  <rect x="2" y="4" width="2" height="2" fill="#000"/>
  <rect x="2" y="6" width="2" height="2" fill="#000"/>
  <rect x="2" y="8" width="2" height="2" fill="#000"/>
  <rect x="2" y="10" width="2" height="2" fill="#000"/>
  <rect x="2" y="12" width="2" height="2" fill="#000"/>
  <rect x="2" y="14" width="2" height="2" fill="#000"/>
  <rect x="2" y="16" width="2" height="2" fill="#000"/>
  <rect x="2" y="18" width="2" height="2" fill="#000"/>
  <rect x="2" y="20" width="2" height="2" fill="#000"/>
  <rect x="2" y="22" width="2" height="2" fill="#000"/>
  <rect x="4" y="22" width="2" height="2" fill="#000"/>
  <rect x="6" y="20" width="2" height="2" fill="#000"/>
  <rect x="8" y="18" width="2" height="2" fill="#000"/>
  <rect x="10" y="18" width="2" height="2" fill="#000"/>
  <rect x="10" y="20" width="2" height="2" fill="#000"/>
  <rect x="10" y="22" width="2" height="2" fill="#000"/>
  <rect x="10" y="24" width="2" height="2" fill="#000"/>
  <rect x="12" y="26" width="2" height="2" fill="#000"/>
  <rect x="14" y="26" width="2" height="2" fill="#000"/>
  <rect x="16" y="24" width="2" height="2" fill="#000"/>
  <rect x="14" y="22" width="2" height="2" fill="#000"/>
  <rect x="14" y="20" width="2" height="2" fill="#000"/>
  <rect x="12" y="18" width="2" height="2" fill="#000"/>
  <rect x="14" y="16" width="2" height="2" fill="#000"/>
  <rect x="16" y="16" width="2" height="2" fill="#000"/>
  <rect x="18" y="16" width="2" height="2" fill="#000"/>
  <rect x="20" y="16" width="2" height="2" fill="#000"/>
  <rect x="22" y="14" width="2" height="2" fill="#000"/>
  <rect x="20" y="12" width="2" height="2" fill="#000"/>
  <rect x="18" y="10" width="2" height="2" fill="#000"/>
  <rect x="16" y="8" width="2" height="2" fill="#000"/>
  <rect x="14" y="6" width="2" height="2" fill="#000"/>
  <rect x="12" y="4" width="2" height="2" fill="#000"/>
  <rect x="10" y="2" width="2" height="2" fill="#000"/>
  <rect x="8" y="0" width="2" height="2" fill="#000"/>
  <rect x="6" y="0" width="2" height="2" fill="#000"/>
  <rect x="4" y="0" width="2" height="2" fill="#000"/>

  <rect x="4" y="2" width="2" height="20" fill="#fff"/>
  <rect x="6" y="2" width="2" height="18" fill="#fff"/>
  <rect x="8" y="2" width="2" height="16" fill="#fff"/>
  <rect x="10" y="4" width="2" height="14" fill="#fff"/>
  <rect x="12" y="6" width="2" height="12" fill="#fff"/>
  <rect x="14" y="8" width="2" height="8" fill="#fff"/>
  <rect x="16" y="10" width="2" height="6" fill="#fff"/>
  <rect x="18" y="12" width="2" height="4" fill="#fff"/>
  <rect x="20" y="14" width="2" height="2" fill="#fff"/>
  <rect x="12" y="20" width="2" height="6" fill="#fff"/>
  <rect x="14" y="24" width="2" height="2" fill="#fff"/>
</svg>
